<svg width="80" height="80" viewBox="0 0 80 80" fill="none" xmlns="http://www.w3.org/2000/svg">
<path d="M0 22.5264C0 21.4656 0.421427 20.4481 1.17157 19.698L19.698 1.17157C20.4481 0.421427 21.4656 0 22.5264 0L57.4736 0C58.5344 0 59.5519 0.421427 60.302 1.17157L78.8284 19.698C79.5786 20.4481 80 21.4656 80 22.5264V57.4736C80 58.5344 79.5786 59.5519 78.8284 60.302L60.302 78.8284C59.5519 79.5786 58.5344 80 57.4736 80H22.5264C21.4656 80 20.4481 79.5786 19.698 78.8284L1.17157 60.302C0.421427 59.5519 0 58.5344 0 57.4736V22.5264Z" fill="white"/>
<path d="M51 38.2679C52.3333 39.0378 52.3333 40.9622 51 41.732L33 52.1244C31.6667 52.8942 30 51.9319 30 50.3923L30 29.6077C30 28.0681 31.6667 27.1058 33 27.8756L51 38.2679Z" fill="#050505"/>
</svg>
